# xmcd CD database file
#
# Track frame offsets:
#	150
#	21300
#	46762
#	67917
#
# Disc length: 1241 seconds
#
# Revision: 2
# Processed by: cddbd v1.5.2PL0 Copyright (c) Steve Scherf et al.
# Submitted via: CDex 1.70beta2
#
DISCID=2904d704
DTITLE=La'cryma Christi - Hot Rod Circuit
DYEAR=2004
DGENRE=J-Pop
TTITLE0=Hot Rod Circuit
TTITLE1=Nothin'To Lose
TTITLE2=Hot Rod Circuit (unvocal version)
TTITLE3=Nothin'To Lose (unvocal version)
EXTD=YEAR: 2004
EXTT0=
EXTT1=
EXTT2=
EXTT3=
PLAYORDER=
